<svg viewBox="0 0 400 300" xmlns="http://www.w3.org/2000/svg">
  <!-- Background -->
  <rect width="400" height="300" fill="#1a1a2e"/>
  
  <!-- Neural Network Nodes -->
  <g class="input-layer">
    <!-- Input Layer -->
    <circle cx="50" cy="100" r="8" fill="#4361ee"/>
    <circle cx="50" cy="150" r="8" fill="#4361ee"/>
    <circle cx="50" cy="200" r="8" fill="#4361ee"/>
  </g>
  
  <!-- Hidden Layers -->
  <g class="hidden-layer-1">
    <circle cx="150" cy="75" r="8" fill="#4cc9f0"/>
    <circle cx="150" cy="125" r="8" fill="#4cc9f0"/>
    <circle cx="150" cy="175" r="8" fill="#4cc9f0"/>
    <circle cx="150" cy="225" r="8" fill="#4cc9f0"/>
  </g>
  
  <g class="hidden-layer-2">
    <circle cx="250" cy="100" r="8" fill="#4cc9f0"/>
    <circle cx="250" cy="150" r="8" fill="#4cc9f0"/>
    <circle cx="250" cy="200" r="8" fill="#4cc9f0"/>
  </g>
  
  <!-- Output Layer -->
  <g class="output-layer">
    <circle cx="350" cy="125" r="8" fill="#f72585"/>
    <circle cx="350" cy="175" r="8" fill="#f72585"/>
  </g>
  
  <!-- Connections -->
  <g stroke="#3f3f5f" stroke-width="1">
    <!-- Input to First Hidden Layer -->
    <path d="M58 100 L142 75" opacity="0.6">
      <animate attributeName="stroke" values="#3f3f5f;#4cc9f0;#3f3f5f" dur="3s" repeatCount="indefinite"/>
    </path>
    <path d="M58 100 L142 125" opacity="0.6"/>
    <path d="M58 100 L142 175" opacity="0.6"/>
    <path d="M58 150 L142 125" opacity="0.6"/>
    <path d="M58 150 L142 175" opacity="0.6"/>
    <path d="M58 200 L142 175" opacity="0.6"/>
    <path d="M58 200 L142 225" opacity="0.6"/>
    
    <!-- Hidden Layer 1 to 2 -->
    <path d="M158 75 L242 100" opacity="0.6"/>
    <path d="M158 125 L242 150" opacity="0.6"/>
    <path d="M158 175 L242 150" opacity="0.6"/>
    <path d="M158 225 L242 200" opacity="0.6"/>
    
    <!-- Hidden Layer 2 to Output -->
    <path d="M258 100 L342 125" opacity="0.6"/>
    <path d="M258 150 L342 175" opacity="0.6"/>
    <path d="M258 200 L342 175" opacity="0.6"/>
  </g>
  
  <!-- Visual Elements -->
  <g transform="translate(160, 40)">
    <rect width="80" height="15" fill="#4361ee" opacity="0.3"/>
    <text x="40" y="12" font-family="Arial" font-size="12" fill="white" text-anchor="middle">Image Input</text>
  </g>
  
  <g transform="translate(160, 245)">
    <rect width="80" height="15" fill="#f72585" opacity="0.3"/>
    <text x="40" y="12" font-family="Arial" font-size="12" fill="white" text-anchor="middle">Analysis</text>
  </g>
  
  <!-- Title -->
  <text x="200" y="280" font-family="Arial" font-size="16" fill="white" text-anchor="middle">Deep Vision Analytics</text>
  
  <!-- Animated Data Flow -->
  <circle r="3" fill="#4cc9f0">
    <animateMotion 
      path="M58 100 L142 75 L242 100 L342 125" 
      dur="2s" 
      repeatCount="indefinite"/>
  </circle>
  
  <circle r="3" fill="#4cc9f0">
    <animateMotion 
      path="M58 200 L142 225 L242 200 L342 175" 
      dur="2s" 
      begin="1s"
      repeatCount="indefinite"/>
  </circle>
</svg>